<?xml version="1.0" encoding="UTF-8" standalone="no"?><!DOCTYPE svg PUBLIC "-//W3C//DTD SVG 1.1//EN" "http://www.w3.org/Graphics/SVG/1.1/DTD/svg11.dtd"><svg width="100%" height="100%" viewBox="0 0 800 600" version="1.1" xmlns="http://www.w3.org/2000/svg" xmlns:xlink="http://www.w3.org/1999/xlink" xml:space="preserve" xmlns:serif="http://www.serif.com/" style="fill-rule:evenodd;clip-rule:evenodd;stroke-linejoin:round;stroke-miterlimit:1.41421;"><g id="Layer-1" serif:id="Layer 1"><path d="M274.074,234.934c-12.284,12.878 -18.431,29.327 -18.431,49.354c0,20.013 6.147,36.663 18.239,50.142c12.483,13.877 28.732,20.811 48.556,20.811c11.896,0 23.589,-2.572 35.08,-7.732l-5.944,-14.863c-9.512,3.767 -18.626,5.745 -27.353,5.745c-14.866,0 -26.754,-5.353 -35.87,-16.049c-8.524,-10.111 -12.685,-22.597 -12.685,-37.469c0,-14.861 4.161,-27.349 12.482,-37.257c8.92,-10.503 20.614,-15.661 35.283,-15.661c4.99,0 8.206,0.464 13.553,1.58c6.748,1.41 7.083,8.326 7.083,8.326l-0.04,17.893l15.669,0l0,-23.663c0,-6.83 -2.781,-12.5 -9.477,-15.312c-10.307,-4.33 -17.927,-5.271 -27.582,-5.273c-20.023,0 -36.074,6.539 -48.563,19.428" style="fill:#4d4d4f;fill-rule:nonzero;"/><path d="M403.489,339.777c-14.462,0 -21.601,-4.953 -21.601,-15.061c0,-4.954 2.179,-8.92 6.743,-11.696c2.969,-1.785 8.121,-3.569 15.256,-5.149c10.704,-2.377 17.245,-4.565 19.823,-6.547l0,31.12c0,0.793 0.201,2.182 0.393,3.969c-6.539,2.174 -13.276,3.364 -20.614,3.364m38.055,-56.289c0,-21.207 -12.086,-31.709 -36.271,-31.709c-11.094,0 -22.191,2.573 -33.493,7.928l6.143,13.875c9.914,-4.167 18.631,-6.347 26.17,-6.347c12.88,0 19.417,4.561 19.417,13.476c0,4.162 -2.773,7.533 -8.327,9.716c-2.376,0.99 -8.713,2.376 -19.021,4.558c-10.304,2.181 -18.042,4.952 -23.193,8.72c-7.331,5.153 -10.901,12.687 -10.901,22.4c0,9.319 3.965,16.649 11.693,21.795c7.335,4.963 17.245,7.34 29.728,7.34c11.102,0 24.186,-2.377 39.444,-7.34c-0.993,-5.94 -1.389,-10.101 -1.389,-12.684l0,-51.728Z" style="fill:#4d4d4f;fill-rule:nonzero;"/><path d="M488.348,339.777c-5.75,0 -10.896,-0.988 -15.264,-3.169l0,-61.442c0,-1.387 -0.594,-4.362 -0.594,-4.556c5.752,-2.181 11.7,-3.375 17.445,-3.375c10.302,0 18.232,3.569 23.586,10.904c4.555,6.339 6.938,14.664 6.938,25.167c0,24.382 -10.706,36.471 -32.111,36.471m1.587,-87.998c-11.296,0 -23.186,2.376 -35.879,7.139c0.801,5.742 1.188,9.903 1.188,12.481l0,111.79l17.84,0l0,-31.315c6.344,2.176 12.489,3.366 18.235,3.366c14.276,0 25.964,-4.958 35.082,-14.663c9.317,-9.717 13.879,-22.205 13.879,-37.271c0,-15.256 -4.562,-27.545 -13.478,-37.061c-8.923,-9.709 -21.207,-14.466 -36.867,-14.466" style="fill:#4d4d4f;fill-rule:nonzero;"/><rect x="551.886" y="253.959" width="17.842" height="101.281" style="fill:#4d4d4f;"/><path d="M637.584,303.509c-1.394,-0.994 -8.727,-4.755 -22.401,-11.101c-8.126,-3.766 -12.091,-8.328 -12.091,-13.277c0,-8.128 5.159,-12.093 15.662,-12.093c6.144,0 13.076,1.391 21.008,4.362l4.755,-14.267c-8.124,-3.371 -16.649,-5.154 -25.575,-5.154c-8.915,0 -16.64,2.177 -22.98,6.538c-7.337,4.956 -11.096,11.891 -11.096,20.811c0,8.723 3.954,15.857 11.69,21.407c7.334,3.762 14.465,7.532 21.601,11.298c7.725,4.164 11.698,8.917 11.698,14.47c0,9.118 -6.151,13.679 -18.435,13.679c-6.94,0 -14.864,-1.791 -23.392,-5.154l-5.153,14.259c9.915,3.771 19.822,5.756 29.734,5.756c9.909,0 18.234,-2.18 25.173,-6.544c7.928,-4.951 11.891,-12.291 11.891,-21.805c0,-9.708 -3.963,-17.44 -12.089,-23.185" style="fill:#4d4d4f;fill-rule:nonzero;"/><path d="M707.016,251.779c-9.711,0 -19.626,2.376 -29.735,6.936l0,-43.209l-17.835,0l0,139.537l17.835,0l0,-79.877c8.525,-5.35 17.048,-7.93 25.77,-7.93c13.278,0 20.019,7.331 20.019,21.805l0,66.199l18.038,0l0,-69.377c0,-21.994 -12.097,-34.084 -34.092,-34.084" style="fill:#4d4d4f;fill-rule:nonzero;"/><path d="M560.609,215.506c-6.343,0 -11.296,4.757 -11.296,11.094c0,6.349 4.953,10.906 11.296,10.906c6.538,0 11.693,-4.557 11.693,-10.906c0,-6.337 -5.356,-11.094 -11.693,-11.094" style="fill:#4d4d4f;fill-rule:nonzero;"/><path d="M230.166,286.615c0,52.476 -42.537,95.013 -95.013,95.013c-52.472,0 -95.008,-42.537 -95.008,-95.013c0,-52.472 42.536,-95.009 95.008,-95.009c52.476,0 95.013,42.537 95.013,95.009" style="fill:#c6e9fa;fill-rule:nonzero;"/><path d="M80.339,327.571c22.622,30.423 65.62,36.744 96.04,14.127c30.421,-22.623 36.742,-65.621 14.121,-96.037c-0.06,-0.081 -0.216,-0.121 -0.462,-0.121c-8.811,0.002 -133.002,50.692 -109.699,82.031Z" style="fill:url(#_Radial1);fill-rule:nonzero;"/><g><g opacity="0.5"><clipPath id="_clip2"><path d="M47.009,374.764l176.29,0l0,-176.293l-176.29,0l0,176.293Z" clip-rule="nonzero"/></clipPath><g clip-path="url(#_clip2)"><path d="M176.108,341.7c-30.417,22.621 -73.415,16.297 -96.034,-14.125c-23.963,-32.22 107.951,-84.881 110.155,-81.914c22.627,30.419 16.303,73.414 -14.121,96.039Zm-93.546,-125.814c-39.067,29.048 -47.181,84.26 -18.134,123.324c29.044,39.064 84.259,47.182 123.32,18.139c39.063,-29.053 47.179,-84.263 18.137,-123.325c-29.053,-39.063 -84.264,-47.183 -123.323,-18.138Z" style="fill:url(#_Linear3);fill-rule:nonzero;"/></g></g></g><g><g opacity="0.5"><clipPath id="_clip4"><path d="M47.009,374.764l176.29,0l0,-176.293l-176.29,0l0,176.293Z" clip-rule="nonzero"/></clipPath><g clip-path="url(#_clip4)"><path d="M176.108,341.7c-30.417,22.621 -73.415,16.297 -96.034,-14.125c-23.963,-32.22 55.32,-115.073 57.526,-112.104c22.625,30.418 68.932,103.604 38.508,126.229Zm-93.546,-125.814c-39.067,29.048 -47.181,84.26 -18.134,123.324c29.044,39.064 84.259,47.182 123.32,18.139c39.063,-29.053 47.179,-84.263 18.137,-123.325c-29.053,-39.063 -84.264,-47.183 -123.323,-18.138Z" style="fill:url(#_Linear5);fill-rule:nonzero;"/></g></g></g><g><g opacity="0.5"><clipPath id="_clip6"><path d="M47.009,374.764l176.29,0l0,-176.293l-176.29,0l0,176.293Z" clip-rule="nonzero"/></clipPath><g clip-path="url(#_clip6)"><path d="M176.108,341.7c-30.417,22.621 -73.415,16.297 -96.034,-14.125c-23.963,-32.22 -11.076,-60.88 -8.872,-57.911c22.62,30.414 135.33,49.411 104.906,72.036Zm-93.546,-125.814c-39.067,29.048 -47.181,84.26 -18.134,123.324c29.044,39.064 84.259,47.182 123.32,18.139c39.063,-29.053 47.179,-84.263 18.137,-123.325c-29.053,-39.063 -84.264,-47.183 -123.323,-18.138Z" style="fill:url(#_Linear7);fill-rule:nonzero;"/></g></g></g></g><defs><radialGradient id="_Radial1" cx="0" cy="0" r="1" gradientUnits="userSpaceOnUse" gradientTransform="matrix(-21.7903,-103.829,103.829,-21.7903,163.707,368.578)"><stop offset="0" style="stop-color:#fff;stop-opacity:1"/><stop offset="0.83" style="stop-color:#e8a728;stop-opacity:1"/><stop offset="1" style="stop-color:#e56425;stop-opacity:1"/></radialGradient><linearGradient id="_Linear3" x1="0" y1="0" x2="1" y2="0" gradientUnits="userSpaceOnUse" gradientTransform="matrix(141.459,-105.182,105.182,141.459,64.4258,339.208)"><stop offset="0" style="stop-color:#9edcf8;stop-opacity:1"/><stop offset="0.01" style="stop-color:#9edcf8;stop-opacity:1"/><stop offset="1" style="stop-color:#00adee;stop-opacity:1"/></linearGradient><linearGradient id="_Linear5" x1="0" y1="0" x2="1" y2="0" gradientUnits="userSpaceOnUse" gradientTransform="matrix(141.459,-105.182,105.182,141.459,64.4258,339.208)"><stop offset="0" style="stop-color:#e1f3fc;stop-opacity:1"/><stop offset="0.01" style="stop-color:#e1f3fc;stop-opacity:1"/><stop offset="0.23" style="stop-color:#6dcef5;stop-opacity:1"/><stop offset="0.71" style="stop-color:#0083b5;stop-opacity:1"/><stop offset="1" style="stop-color:#005476;stop-opacity:1"/></linearGradient><linearGradient id="_Linear7" x1="0" y1="0" x2="1" y2="0" gradientUnits="userSpaceOnUse" gradientTransform="matrix(104.2,136.538,-136.538,104.2,83.0449,218.333)"><stop offset="0" style="stop-color:#e1f3fc;stop-opacity:1"/><stop offset="0.01" style="stop-color:#e1f3fc;stop-opacity:1"/><stop offset="0.23" style="stop-color:#6dcef5;stop-opacity:1"/><stop offset="0.71" style="stop-color:#0083b5;stop-opacity:1"/><stop offset="1" style="stop-color:#005476;stop-opacity:1"/></linearGradient></defs></svg>