<?xml version="1.0" encoding="UTF-8" standalone="no"?><!DOCTYPE svg PUBLIC "-//W3C//DTD SVG 1.1//EN" "http://www.w3.org/Graphics/SVG/1.1/DTD/svg11.dtd"><svg width="100%" height="100%" viewBox="0 0 800 600" version="1.1" xmlns="http://www.w3.org/2000/svg" xmlns:xlink="http://www.w3.org/1999/xlink" xml:space="preserve" xmlns:serif="http://www.serif.com/" style="fill-rule:evenodd;clip-rule:evenodd;stroke-linejoin:round;stroke-miterlimit:1.41421;"><g id="Layer-1" serif:id="Layer 1"><path d="M272.51,236.991c-12.066,12.652 -18.109,28.816 -18.109,48.494c0,19.665 6.043,36.023 17.922,49.267c12.261,13.637 28.232,20.451 47.712,20.451c11.688,0 23.174,-2.527 34.465,-7.596l-5.836,-14.605c-9.352,3.703 -18.303,5.646 -26.877,5.646c-14.609,0 -26.289,-5.263 -35.249,-15.773c-8.375,-9.932 -12.463,-22.201 -12.463,-36.814c0,-14.605 4.088,-26.877 12.269,-36.613c8.76,-10.316 20.254,-15.385 34.668,-15.385c4.899,0 8.055,0.456 13.315,1.551c6.631,1.385 6.955,8.185 6.955,8.185l-0.032,17.579l15.387,0l0,-23.254c0,-6.71 -2.725,-12.28 -9.312,-15.042c-10.123,-4.257 -17.605,-5.179 -27.095,-5.183c-19.675,0 -35.451,6.424 -47.72,19.092" style="fill:#fff;fill-rule:nonzero;"/><path d="M399.673,340.006c-14.216,0 -21.224,-4.863 -21.224,-14.795c0,-4.869 2.138,-8.765 6.623,-11.496c2.92,-1.75 7.986,-3.504 14.994,-5.056c10.52,-2.336 16.937,-4.485 19.48,-6.434l0,30.58c0,0.777 0.194,2.141 0.377,3.9c-6.416,2.133 -13.039,3.301 -20.25,3.301m37.394,-55.308c0,-20.836 -11.872,-31.156 -35.638,-31.156c-10.906,0 -21.812,2.529 -32.908,7.787l6.035,13.637c9.742,-4.094 18.307,-6.235 25.713,-6.235c12.654,0 19.078,4.482 19.078,13.24c0,4.09 -2.73,7.401 -8.181,9.547c-2.34,0.971 -8.565,2.334 -18.688,4.475c-10.131,2.148 -17.732,4.869 -22.797,8.573c-7.203,5.061 -10.712,12.464 -10.712,22.007c0,9.161 3.898,16.364 11.495,21.418c7.202,4.875 16.948,7.212 29.209,7.212c10.913,0 23.762,-2.337 38.756,-7.212c-0.978,-5.838 -1.362,-9.927 -1.362,-12.464l0,-50.829Z" style="fill:#fff;fill-rule:nonzero;"/><path d="M483.054,340.006c-5.646,0 -10.703,-0.967 -14.998,-3.112l0,-60.372c0,-1.363 -0.588,-4.287 -0.588,-4.475c5.658,-2.146 11.506,-3.316 17.144,-3.316c10.13,0 17.921,3.504 23.182,10.711c4.474,6.231 6.814,14.41 6.814,24.732c0,23.955 -10.517,35.832 -31.554,35.832m1.558,-86.464c-11.101,0 -22.782,2.336 -35.252,7.015c0.782,5.641 1.172,9.731 1.172,12.264l0,109.847l17.524,0l0,-30.774c6.238,2.141 12.272,3.309 17.919,3.309c14.024,0 25.51,-4.871 34.473,-14.408c9.158,-9.547 13.631,-21.82 13.631,-36.621c0,-14.992 -4.473,-27.066 -13.233,-36.42c-8.77,-9.538 -20.847,-14.212 -36.234,-14.212" style="fill:#fff;fill-rule:nonzero;"/><rect x="545.487" y="255.683" width="17.537" height="99.52" style="fill:#fff;"/><path d="M629.692,304.37c-1.371,-0.976 -8.573,-4.67 -22.011,-10.91c-7.985,-3.696 -11.883,-8.182 -11.883,-13.041c0,-7.989 5.075,-11.887 15.392,-11.887c6.043,0 12.849,1.369 20.644,4.289l4.675,-14.019c-7.985,-3.311 -16.356,-5.065 -25.132,-5.065c-8.761,0 -16.353,2.141 -22.579,6.424c-7.21,4.871 -10.906,11.683 -10.906,20.451c0,8.57 3.89,15.58 11.487,21.032c7.203,3.698 14.21,7.401 21.223,11.103c7.596,4.091 11.502,8.761 11.502,14.218c0,8.961 -6.052,13.442 -18.117,13.442c-6.821,0 -14.608,-1.76 -22.987,-5.065l-5.067,14.008c9.746,3.707 19.481,5.658 29.222,5.658c9.738,0 17.918,-2.142 24.731,-6.432c7.796,-4.863 11.69,-12.074 11.69,-21.423c0,-9.543 -3.894,-17.136 -11.884,-22.783" style="fill:#fff;fill-rule:nonzero;"/><path d="M697.914,253.542c-9.543,0 -19.277,2.336 -29.214,6.815l0,-42.459l-17.52,0l0,137.11l17.52,0l0,-78.487c8.379,-5.257 16.754,-7.791 25.32,-7.791c13.051,0 19.674,7.204 19.674,21.425l0,65.048l17.72,0l0,-68.171c0,-21.613 -11.879,-33.49 -33.5,-33.49" style="fill:#fff;fill-rule:nonzero;"/><path d="M554.061,217.898c-6.237,0 -11.101,4.674 -11.101,10.9c0,6.24 4.864,10.717 11.101,10.717c6.42,0 11.485,-4.477 11.485,-10.717c0,-6.226 -5.259,-10.9 -11.485,-10.9" style="fill:#fff;fill-rule:nonzero;"/><path d="M229.361,287.771c0,51.564 -41.79,93.36 -93.354,93.36c-51.565,0 -93.355,-41.796 -93.355,-93.36c0,-51.559 41.79,-93.354 93.355,-93.354c51.564,0 93.354,41.795 93.354,93.354" style="fill:#c6e9fa;fill-rule:nonzero;"/><path d="M82.147,328.016c22.225,29.892 64.477,36.105 94.367,13.881c29.896,-22.233 36.105,-64.481 13.879,-94.366c-0.059,-0.079 -0.212,-0.119 -0.454,-0.119c-8.662,0.002 -130.691,49.808 -107.792,80.604Z" style="fill:url(#_Radial1);fill-rule:nonzero;"/><g><g opacity="0.5"><clipPath id="_clip2"><path d="M49.396,374.388l173.218,0l0,-173.227l-173.218,0l0,173.227Z" clip-rule="nonzero"/></clipPath><g clip-path="url(#_clip2)"><path d="M176.251,341.897c-29.895,22.228 -72.143,16.015 -94.364,-13.877c-23.548,-31.662 106.069,-83.405 108.235,-80.489c22.233,29.889 16.024,72.133 -13.871,94.366Zm-91.922,-123.626c-38.388,28.542 -46.357,82.798 -17.817,121.181c28.54,38.386 82.793,46.363 121.173,17.823c38.378,-28.548 46.356,-82.797 17.816,-121.181c-28.548,-38.381 -82.789,-46.361 -121.172,-17.823Z" style="fill:url(#_Linear3);fill-rule:nonzero;"/></g></g></g><g><g opacity="0.5"><clipPath id="_clip4"><path d="M49.396,374.388l173.218,0l0,-173.227l-173.218,0l0,173.227Z" clip-rule="nonzero"/></clipPath><g clip-path="url(#_clip4)"><path d="M176.251,341.897c-29.895,22.228 -72.143,16.015 -94.364,-13.877c-23.548,-31.662 54.359,-113.072 56.52,-110.154c22.234,29.889 67.739,101.798 37.844,124.031Zm-91.922,-123.626c-38.388,28.542 -46.357,82.798 -17.817,121.181c28.54,38.386 82.793,46.363 121.173,17.823c38.378,-28.548 46.356,-82.797 17.816,-121.181c-28.548,-38.381 -82.789,-46.361 -121.172,-17.823Z" style="fill:url(#_Linear5);fill-rule:nonzero;"/></g></g></g><g><g opacity="0.5"><clipPath id="_clip6"><path d="M49.396,374.388l173.218,0l0,-173.227l-173.218,0l0,173.227Z" clip-rule="nonzero"/></clipPath><g clip-path="url(#_clip6)"><path d="M176.251,341.897c-29.895,22.228 -72.143,16.015 -94.364,-13.877c-23.548,-31.662 -10.89,-59.821 -8.72,-56.907c22.226,29.889 132.979,48.551 103.084,70.784Zm-91.922,-123.626c-38.388,28.542 -46.357,82.798 -17.817,121.181c28.54,38.386 82.793,46.363 121.173,17.823c38.378,-28.548 46.356,-82.797 17.816,-121.181c-28.548,-38.381 -82.789,-46.361 -121.172,-17.823Z" style="fill:url(#_Linear7);fill-rule:nonzero;"/></g></g></g><path d="M746.812,234.588c0.552,0.1 1.053,0.1 1.604,0.1c2.104,0 3.909,-1.102 3.909,-3.357c0,-2.205 -1.704,-2.856 -3.809,-2.856c-0.552,0 -1.102,0.05 -1.704,0.15l0,5.963Zm6.865,10.874l-4.009,-6.615c-0.25,-0.451 -0.55,-0.952 -0.952,-1.302l-0.651,0c-0.451,0 -0.802,0 -1.253,-0.051l0,7.968l-3.607,0l0,-19.493c1.703,-0.351 3.357,-0.601 5.111,-0.601c3.858,0 7.767,1.303 7.767,6.063c0,2.606 -1.905,4.911 -4.26,5.312l0,0.05c0.652,0.05 1.353,1.102 1.654,1.553l4.46,7.116l-4.26,0Zm9.972,-9.722c0,-7.767 -6.363,-14.531 -14.231,-14.531c-7.868,0 -14.231,6.764 -14.231,14.531c0,7.767 6.363,14.533 14.231,14.533c7.868,0 14.231,-6.766 14.231,-14.533m-14.231,17.789c-9.872,0 -17.939,-7.917 -17.939,-17.789c0,-9.871 8.067,-17.839 17.939,-17.839c9.872,0 17.99,7.968 17.99,17.839c0,9.872 -8.118,17.789 -17.99,17.789" style="fill:#fff;fill-rule:nonzero;"/></g><defs><radialGradient id="_Radial1" cx="0" cy="0" r="1" gradientUnits="userSpaceOnUse" gradientTransform="matrix(-21.4111,-102.022,102.022,-21.4111,164.065,368.308)"><stop offset="0" style="stop-color:#fff;stop-opacity:1"/><stop offset="0.83" style="stop-color:#e8a728;stop-opacity:1"/><stop offset="1" style="stop-color:#e56425;stop-opacity:1"/></radialGradient><linearGradient id="_Linear3" x1="0" y1="0" x2="1" y2="0" gradientUnits="userSpaceOnUse" gradientTransform="matrix(138.995,-103.35,103.35,138.995,66.509,339.448)"><stop offset="0" style="stop-color:#9edcf8;stop-opacity:1"/><stop offset="0.01" style="stop-color:#9edcf8;stop-opacity:1"/><stop offset="1" style="stop-color:#00adee;stop-opacity:1"/></linearGradient><linearGradient id="_Linear5" x1="0" y1="0" x2="1" y2="0" gradientUnits="userSpaceOnUse" gradientTransform="matrix(138.995,-103.35,103.35,138.995,66.509,339.448)"><stop offset="0" style="stop-color:#e1f3fc;stop-opacity:1"/><stop offset="0.01" style="stop-color:#e1f3fc;stop-opacity:1"/><stop offset="0.23" style="stop-color:#6dcef5;stop-opacity:1"/><stop offset="0.71" style="stop-color:#0083b5;stop-opacity:1"/><stop offset="1" style="stop-color:#005476;stop-opacity:1"/></linearGradient><linearGradient id="_Linear7" x1="0" y1="0" x2="1" y2="0" gradientUnits="userSpaceOnUse" gradientTransform="matrix(102.388,134.164,-134.164,102.388,84.8016,220.678)"><stop offset="0" style="stop-color:#e1f3fc;stop-opacity:1"/><stop offset="0.01" style="stop-color:#e1f3fc;stop-opacity:1"/><stop offset="0.23" style="stop-color:#6dcef5;stop-opacity:1"/><stop offset="0.71" style="stop-color:#0083b5;stop-opacity:1"/><stop offset="1" style="stop-color:#005476;stop-opacity:1"/></linearGradient></defs></svg>